<?xml version="1.0" standalone="no"?><!DOCTYPE svg PUBLIC "-//W3C//DTD SVG 1.1//EN" "http://www.w3.org/Graphics/SVG/1.1/DTD/svg11.dtd"><svg t="1720514468805" class="icon" viewBox="0 0 1024 1024" version="1.1" xmlns="http://www.w3.org/2000/svg" p-id="3306" data-spm-anchor-id="a313x.search_index.0.i37.32633a81n29Rgo" xmlns:xlink="http://www.w3.org/1999/xlink" width="64" height="64"><path d="M666.544 112H357.456C221.896 112 112 221.896 112 357.456v309.088C112 802.104 221.896 912 357.456 912h309.088c135.56 0 245.456-109.896 245.456-245.456V357.456C912 221.896 802.104 112 666.544 112z" fill="#dff5fd" p-id="3307" data-spm-anchor-id="a313x.search_index.0.i32.32633a81n29Rgo" class="selected"></path><path d="M644.92 856.04H379.08c-116.6 0-211.12-94.52-211.12-211.12V379.08c0-116.6 94.52-211.12 211.12-211.12h265.84c116.6 0 211.12 94.52 211.12 211.12v265.84c0 116.6-94.52 211.12-211.12 211.12z" fill="#dff5fd" p-id="3308" data-spm-anchor-id="a313x.search_index.0.i33.32633a81n29Rgo" class=""></path><path d="M627.988 211.8H396.012c-101.74 0-184.216 82.472-184.216 184.212v231.976c0 101.74 82.48 184.216 184.216 184.216h231.976c101.74 0 184.216-82.48 184.216-184.216V396.012c0-101.74-82.48-184.216-184.216-184.216z" fill="#dff5fd" p-id="3309" data-spm-anchor-id="a313x.search_index.0.i34.32633a81n29Rgo" class=""></path><path d="M726.548 184.336a209.62 209.62 0 0 0-22.248-7.848c-72-11.72-264.004 39.268-408.928 290.332 0 0-54.632-24.268-127.408-31.144v209.248c0 116.596 94.52 211.112 211.112 211.112h265.848c116.596 0 211.112-94.52 211.112-211.112v-215.88c-21.332-101.748-60.308-195.16-129.488-244.708z" fill="#ABD8E0" p-id="3310" data-spm-anchor-id="a313x.search_index.0.i36.32633a81n29Rgo" class=""></path><path d="M726.548 184.336a209.62 209.62 0 0 0-22.248-7.848c-72-11.72-264.004 39.268-408.928 290.332 0 0-54.632-24.268-127.408-31.144v209.248c0 72.696 36.752 136.804 92.68 174.776C434.084 258.64 726.548 184.336 726.548 184.336z" fill="#6FCACF" p-id="3311"></path><path d="M694.028 175.32c-78.66-5.632-260.152 51.56-398.656 291.5 0 0-54.632-24.268-127.408-31.144v209.248c0 30.012 6.28 58.552 17.568 84.4C422.876 185.784 693.948 175.324 694.028 175.32z" fill="#90D4DA" p-id="3312"></path><path d="M460.388 522.544s16.92-56.748 96.852 0 152.912 74.124 236.32-3.492 63.712 78.776-20.852 159.864-167.232 108.732-252.54 67.192c-81.088-39.492-83.648-192.272-59.78-223.564z" fill="#EE4B5F" p-id="3313"></path><path d="M775.576 676.096c-65.44-35.96-181.64-77.1-321.12-27.28 9.768 41.008 30.216 80.004 65.712 97.292 85.308 41.54 167.976 13.9 252.54-67.192 0.968-0.928 1.92-1.876 2.868-2.82z" fill="#D82444" p-id="3314"></path><path d="M460.388 522.544c-3.4 4.452-6.236 11.432-8.412 20.132l40.16 52.248c4.736 6.16 14.528 3.736 15.848-3.92l15.124-87.82c-50.824-20.412-62.72 19.36-62.72 19.36zM793.56 519.052c-3.6 3.352-7.172 6.46-10.732 9.46l13.144 42.728a5.588 5.588 0 0 0 9.38 2.216l41.592-43.568c1.352-32.852-15.212-46.356-53.384-10.836zM679.2 674.008c-1.464-3.728-6.656-3.96-8.448-0.376l-26.628 53.256c-1.792 3.58-6.972 3.352-8.444-0.372l-21.116-53.432a4.628 4.628 0 0 0-8.28-0.672l-33.412 55.988c-1.932 3.24-6.72 2.932-8.22-0.528l-21.864-50.424a4.628 4.628 0 0 0-7.744-1.192l-42.64 49.144c8.008 8.468 17.208 15.564 27.764 20.708 61.636 30.012 121.892 23.896 182.48-12.384l-23.448-59.716z" fill="#FFFFFF" p-id="3315"></path><path d="M203.604 762.316c0.42 0.624 0.852 1.24 1.28 1.856-0.428-0.62-0.86-1.232-1.28-1.856zM215.4 778.228zM222.5 786.52c0.404 0.444 0.824 0.88 1.232 1.32-0.408-0.44-0.828-0.876-1.232-1.32zM230.576 794.948c-0.636-0.632-1.264-1.272-1.892-1.912 0.628 0.64 1.256 1.28 1.892 1.912zM209.064 770.06c0.4 0.54 0.788 1.088 1.196 1.628-0.408-0.54-0.796-1.088-1.196-1.628zM251.668 813.236zM398.096 498.116c-48.84 83.656-96.468 189.02-137.452 321.584 2.524 1.716 5.096 3.36 7.696 4.96 40.024-142.068 132.452-320.196 132.452-320.196l-2.696-6.348zM243.528 806.74c0.584 0.488 1.16 0.988 1.744 1.472-0.588-0.484-1.16-0.984-1.744-1.472zM236.456 800.552c0.648 0.592 1.308 1.172 1.96 1.76-0.652-0.588-1.312-1.168-1.96-1.76zM197.832 753.184l1.224 2.04-1.224-2.04zM172.088 686.56c0.136 0.68 0.28 1.356 0.424 2.032-0.144-0.68-0.288-1.352-0.424-2.032zM170.264 676.028c0.072 0.5 0.136 1.008 0.212 1.504-0.08-0.496-0.14-1-0.212-1.504zM174.592 697.6c0.032 0.14 0.076 0.272 0.108 0.408-0.032-0.136-0.076-0.268-0.108-0.404zM168.208 654.632c0.032 0.68 0.06 1.364 0.096 2.044-0.04-0.68-0.064-1.36-0.096-2.04zM193.34 745.356c0.168 0.308 0.352 0.612 0.52 0.92-0.168-0.308-0.348-0.612-0.52-0.92zM169.016 666.008c0.052 0.528 0.12 1.052 0.172 1.576-0.056-0.524-0.12-1.048-0.172-1.576zM188.344 735.488zM184.12 726.008c0.216 0.512 0.42 1.028 0.636 1.54-0.216-0.512-0.42-1.028-0.632-1.54zM177.124 706.544c0.204 0.668 0.404 1.34 0.616 2-0.212-0.66-0.412-1.332-0.616-2zM180.58 716.94c0.208 0.576 0.432 1.148 0.648 1.724-0.216-0.576-0.44-1.148-0.648-1.724z" fill="#DFF2F8" p-id="3316"></path><path d="M167.96 435.676v209.248c0 15.34 1.656 30.288 4.764 44.696 62.608-135.404 122.648-222.8 122.648-222.8s-54.632-24.268-127.408-31.144z" fill="#4DA8A4" p-id="3317"></path><path d="M473.432 385.852c0.244 13.54 8.768 11.808 34.224-25.028 73.848-106.864 218.892-176.488 218.892-176.488s-120.768 30.708-253.116 201.52z" fill="#DFF2F8" p-id="3318"></path><path d="M391.228 378.552m-125.916 0a125.916 125.916 0 1 0 251.832 0 125.916 125.916 0 1 0-251.832 0Z" fill="#FFFFFF" p-id="3319"></path><path d="M391.228 378.552m-78 0a78 78 0 1 0 156 0 78 78 0 1 0-156 0Z" fill="#175987" p-id="3320"></path><path d="M391.228 300.548c-43.08 0-78 34.92-78 78h78v-78z" fill="#2F83B3" p-id="3321"></path></svg>