<?xml version="1.0" standalone="no"?><!DOCTYPE svg PUBLIC "-//W3C//DTD SVG 1.1//EN" "http://www.w3.org/Graphics/SVG/1.1/DTD/svg11.dtd"><svg t="1679293184410" class="icon" viewBox="0 0 1058 1024" version="1.1" xmlns="http://www.w3.org/2000/svg" p-id="4997" xmlns:xlink="http://www.w3.org/1999/xlink" width="206.640625" height="200"><path d="M0 0h1024v1024H0V0z" fill="#202425" opacity=".01" p-id="4998" data-spm-anchor-id="a313x.7781069.0.i6" class=""></path><path d="M206.813867 834.2528a443.733333 443.733333 0 0 0 456.942933 94.72 443.733333 443.733333 0 0 0 289.1776-366.250667c-105.130667 66.116267-226.9184 125.6448-359.2192 173.806934-132.3008 48.128-263.850667 80.827733-386.901333 97.723733z" fill="#85f1f9" p-id="4999" data-spm-anchor-id="a313x.7781069.0.i1" class="selected"></path><path d="M938.018133 387.822933c-2.730667-9.216-5.700267-18.432-9.045333-27.579733C845.141333 129.9456 590.506667 11.195733 360.2432 95.0272 129.9456 178.858667 11.195733 433.493333 95.0272 663.7568c3.345067 9.181867 6.929067 18.158933 10.786133 26.965333-7.133867 0.546133-14.199467 1.024-21.230933 1.4336a51.2 51.2 0 1 0 6.109867 102.229334c147.524267-8.8064 315.050667-43.9296 485.512533-105.984 170.461867-62.020267 321.399467-142.813867 440.046933-230.912a51.2 51.2 0 1 0-61.0304-82.193067c-5.666133 4.164267-11.400533 8.362667-17.2032 12.526933z" fill="#1296db" p-id="5000" data-spm-anchor-id="a313x.7781069.0.i0" class="selected"></path><path d="M614.4 307.2a68.266667 68.266667 0 1 0 0-136.533333 68.266667 68.266667 0 0 0 0 136.533333z m-307.2 307.2a136.533333 136.533333 0 1 0 0-273.066667 136.533333 136.533333 0 0 0 0 273.066667z" fill="#FFFFFF" p-id="5001"></path></svg>